<svg role="img" viewBox="0 0 38 57" xmlns="http://www.w3.org/2000/svg"><title>Figma</title><path d="M19 28.5c0-4.7 3.8-8.5 8.5-8.5h9.5v17H27.5c-4.7 0-8.5-3.8-8.5-8.5z" fill="#1ABCFE"/><path d="M0 47.5C0 42.8 3.8 39 8.5 39H18v9.5c0 4.7-3.8 8.5-8.5 8.5S0 52.2 0 47.5z" fill="#0ACF83"/><path d="M18 0v19h9.5c4.7 0 8.5-3.8 8.5-8.5S32.2 1.7 27.5 1.7c-.1 0-9.5-.1-9.5-.1z" fill="#FF7262"/><path d="M0 9.5C0 14.2 3.8 18 8.5 18H18V0H8.5C3.8 0 0 3.8 0 9.5z" fill="#F24E1E"/><path d="M0 28.5C0 33.2 3.8 37 8.5 37H18V20H8.5C3.8 20 0 23.8 0 28.5z" fill="#A259FF"/></svg>
