<svg role="img" viewBox="0 0 54 33" xmlns="http://www.w3.org/2000/svg"><title>GitHub</title><path d="M27 0C12.09 0 0 12.09 0 27c0 11.94 7.74 22.05 18.47 25.62 1.35.25 1.85-.59 1.85-1.3v-4.55c-7.52 1.63-9.1-3.63-9.1-3.63-1.23-3.12-3-3.95-3-3.95-2.45-1.68.19-1.64.19-1.64 2.71.19 4.13 2.78 4.13 2.78 2.41 4.13 6.32 2.94 7.86 2.25.24-1.75.94-2.94 1.71-3.61-6-.68-12.32-3-12.32-13.36 0-2.95 1.05-5.37 2.78-7.26-.28-.68-1.21-3.43.27-7.15 0 0 2.27-.73 7.43 2.78 2.16-.6 4.47-.9 6.77-.91 2.3.01 4.61.31 6.77.91 5.15-3.51 7.42-2.78 7.42-2.78 1.48 3.72.55 6.47.27 7.15 1.73 1.89 2.78 4.31 2.78 7.26 0 10.38-6.33 12.67-12.36 13.34.97.84 1.83 2.48 1.83 5v7.4c0 .72.49 1.56 1.86 1.3C46.27 49.04 54 38.94 54 27 54 12.09 41.91 0 27 0z" fill="#181717"/></svg>
