<?xml version="1.0" encoding="UTF-8"?>
<svg id="Capa_2" xmlns="http://www.w3.org/2000/svg" version="1.1" viewBox="0 0 50 50">
  <!-- Generator: Adobe Illustrator 30.4.0, SVG Export Plug-In . SVG Version: 2.1.4 Build 226)  -->
  <defs>
    <style>
      .st0 {
        fill: #0071e3;
      }

      .st1 {
        fill: #fff;
        stroke: #fff;
        stroke-miterlimit: 10;
      }
    </style>
  </defs>
  <g id="Capa_1-2">
    <rect class="st0" width="50" height="50" rx="12.68" ry="12.68"/>
  </g>
  <g>
    <path class="st1" d="M41.04,43c-3.98-.06-5.88-1.98-7.41-3.87l-.55-.87h-9.38l2.28-3.76,4.81-.03-2.4-3.93,3.3-5.26,10.84,17.71h-1.49,0Z"/>
    <path class="st1" d="M21.3,18.96l-3.23,5.29L7.55,7s1.82,0,2.14.02c2.41.13,4.91,1.26,6.29,3.17l5.33,8.76h-.01Z"/>
    <path class="st1" d="M38.71,7.32l-19.33,31.86c-1.53,2.74-4.04,3.55-5.73,3.53h-2.9L30.62,10.15c1.35-1.94,3.17-2.92,5.57-2.91,0,0,2.52.08,2.52.08Z"/>
  </g>
</svg>