<?xml version="1.0" encoding="UTF-8"?>
<svg id="Capa_2" data-name="Capa 2" xmlns="http://www.w3.org/2000/svg" viewBox="0 0 512 574.88">
  <defs>
    <style>
      .cls-1 {
        fill: #4f46e5;
      }

      .cls-2 {
        fill: #1a1a1a;
      }
    </style>
  </defs>
  <g id="Capa_1-2" data-name="Capa 1">
    <g>
      <path class="cls-1" d="M512,574.43l-34.58.45c-63.83-.94-95.41-28.89-119.99-59.25l-9.62-14.02-151.73-.17,41.72-60.15,69.67-.5-34.49-50.22,58.81-84.77,180.2,268.63Z"/>
      <path class="cls-1" d="M241.21,169.46l-59.64,86.31S4.49,1.24,4.66,0h56.46c41.04.01,79.51,19.52,103.17,52.31l76.92,117.15Z"/>
      <path class="cls-2" d="M510.56.17L151.17,517.43c-32.03,43.37-82.38,55.94-109.5,55.71l-29.25-.19H0S357.64,49.87,357.64,49.87C379.26,18.65,421.37-.01,459.95.06l50.62.11Z"/>
    </g>
  </g>
</svg>