<?xml version="1.0" encoding="UTF-8"?>
<svg id="Capa_2" data-name="Capa 2" xmlns="http://www.w3.org/2000/svg" viewBox="0 0 268.68 40">
  <defs>
    <style>
      .cls-1 {
        fill: #4f46e5;
      }

      .cls-2 {
        fill: #1a1a1a;
      }
    </style>
  </defs>
  <g id="Capa_1-2" data-name="Capa 1">
    <g>
      <path class="cls-1" d="M57.12,33.05h3.26c1.4,0,2.27.73,2.27,2.14s-.87,2.14-2.27,2.14h-1.57v2.43h-1.69v-6.72ZM58.82,35.95h1.21c.58,0,.94-.2.94-.76s-.36-.76-.94-.76h-1.21v1.52Z"/>
      <path class="cls-1" d="M67.43,33.05h3.17c1.49,0,2.4.69,2.4,1.96,0,.89-.53,1.46-1.36,1.65v.02c1.68.29,1.07,2.9,1.46,3.01v.09h-1.76c-.33-.28.28-2.34-1.16-2.34h-1.05v2.34h-1.69v-6.72ZM69.12,36.05h1.15c.68,0,1.03-.24,1.03-.81s-.36-.81-1.03-.81h-1.15v1.62Z"/>
      <path class="cls-1" d="M77.64,36.4c0-2.02,1.19-3.51,3.33-3.51s3.33,1.49,3.33,3.51-1.21,3.52-3.33,3.52-3.33-1.48-3.33-3.52ZM82.6,36.4c0-1.17-.41-2.12-1.64-2.12s-1.64.96-1.64,2.12.4,2.13,1.64,2.13,1.64-.96,1.64-2.13Z"/>
      <path class="cls-1" d="M89.12,33.05h2.98c1.87,0,3,1.2,3,3.37s-1.03,3.36-2.9,3.36h-3.07v-6.72ZM90.81,38.39h1.12c1.05,0,1.48-.75,1.48-1.97s-.42-1.98-1.48-1.98h-1.12v3.96Z"/>
      <path class="cls-1" d="M102.69,39.92c-2.03,0-2.81-.9-2.81-2.58v-4.3h1.69v4.3c0,.87.38,1.19,1.12,1.19s1.12-.32,1.12-1.19v-4.3h1.69v4.3c0,1.67-.78,2.58-2.81,2.58Z"/>
      <path class="cls-1" d="M113.46,34.28c-1.12,0-1.49.86-1.49,2.12s.38,2.13,1.49,2.13c.9,0,1.24-.54,1.35-1.29h1.69c-.15,1.58-1.13,2.67-2.97,2.67-2.12,0-3.26-1.48-3.26-3.52s1.14-3.51,3.26-3.51c1.83,0,2.81,1.09,2.97,2.65h-1.69c-.12-.73-.46-1.27-1.35-1.27Z"/>
      <path class="cls-1" d="M122.79,34.43h-1.96v-1.38h5.59v1.38h-1.95v5.34h-1.69v-5.34Z"/>
      <path class="cls-1" d="M137,33.05h2.98c1.87,0,3,1.2,3,3.37s-1.03,3.36-2.9,3.36h-3.07v-6.72ZM138.69,38.39h1.12c1.05,0,1.48-.75,1.48-1.97s-.42-1.98-1.48-1.98h-1.12v3.96Z"/>
      <path class="cls-1" d="M152.43,35.62v1.38h-2.93v1.38h3.46v1.38h-5.15v-6.72h5.09v1.38h-3.4v1.19h2.93Z"/>
      <path class="cls-1" d="M163.24,37.8c0,1.29-.98,2.12-2.66,2.12s-3.06-.86-3.06-2.36h1.69c0,.71.62.98,1.37.98.63,0,.97-.24.97-.58,0-.54-.72-.66-1.67-.94-1.16-.34-2.17-.84-2.17-2.08,0-1.47,1.15-2.04,2.59-2.04,1.57,0,2.8.83,2.85,2.19h-1.69c-.08-.51-.51-.81-1.16-.81-.51,0-.9.16-.9.54,0,.41.42.55,1.27.78,1.27.35,2.58.76,2.58,2.2Z"/>
      <path class="cls-1" d="M169.8,33.05v6.72h-1.69v-6.72h1.69Z"/>
      <path class="cls-1" d="M177.9,34.28c-1.11,0-1.53.86-1.53,2.12s.42,2.13,1.6,2.13c.78,0,1.33-.47,1.34-1.12h-1.28v-1.22h3.03v3.57h-1.21l-.17-.86h-.02c-.32.61-.95,1.01-1.94,1.01-1.91,0-3.05-1.48-3.05-3.52s1.14-3.51,3.25-3.51c1.84,0,2.87,1.09,3.03,2.38h-1.69c-.12-.46-.43-1-1.36-1Z"/>
      <path class="cls-1" d="M186.05,33.05h1.69l2.35,3.99h.02v-3.99h1.69v6.72h-1.69l-2.35-3.99h-.02v3.99h-1.69v-6.72Z"/>
      <path class="cls-1" d="M201.52,35.62v1.38h-2.93v1.38h3.46v1.38h-5.15v-6.72h5.09v1.38h-3.4v1.19h2.93Z"/>
      <path class="cls-1" d="M206.98,33.05h3.17c1.49,0,2.4.69,2.4,1.96,0,.89-.53,1.46-1.36,1.65v.02c1.68.29,1.07,2.9,1.46,3.01v.09h-1.76c-.33-.28.28-2.34-1.16-2.34h-1.05v2.34h-1.69v-6.72ZM208.67,36.05h1.15c.68,0,1.03-.24,1.03-.81s-.36-.81-1.03-.81h-1.15v1.62Z"/>
    </g>
    <g>
      <path class="cls-1" d="M35.96,39.97l-2.41.03c-4.44-.07-6.64-2.01-8.35-4.12l-.67-.98h-10.56s2.9-4.2,2.9-4.2l4.85-.03-2.4-3.49,4.09-5.9,12.54,18.69Z"/>
      <path class="cls-1" d="M17.12,11.79l-4.15,6.01L1.17.31c-.1-.14-.15-.22-.14-.31h3.55c2.86,0,5.53,1.36,7.18,3.64l5.35,8.15Z"/>
      <path class="cls-2" d="M35.86.01L10.85,36c-2.23,3.02-5.73,3.89-7.62,3.88H.86s-.86-.01-.86-.01L25.22,3.47C26.72,1.3,29.65,0,32.34,0h3.52Z"/>
    </g>
    <g>
      <path class="cls-2" d="M52.34.21l7.3,12.34h.07L67.05.21h3.42l-9.2,14.88v10.33h-3.17v-10.33L48.92.21h3.42Z"/>
      <path class="cls-2" d="M81.61,19.89h2.82c-.92,3.35-3.49,6.03-7.97,6.03-5.47,0-8.78-3.84-8.78-9.49,0-5.99,3.39-9.49,8.64-9.49,5.64,0,8.39,3.84,8.39,10.23h-14.21c0,3.24,1.94,6.28,5.85,6.28,3.6,0,4.94-2.33,5.25-3.56ZM70.51,14.71h11.39c0-2.89-2.19-5.29-5.57-5.29s-5.82,2.4-5.82,5.29Z"/>
      <path class="cls-2" d="M87.5,2.26c0-1.09.99-1.69,1.76-1.69s1.76.6,1.76,1.69-.95,1.69-1.76,1.69-1.76-.6-1.76-1.69ZM90.68,7.44v17.99h-2.82V7.44h2.82Z"/>
      <path class="cls-2" d="M109.05,20.49c0,3.28-3,5.43-7.09,5.43-5.5,0-8.04-2.61-8.22-6.49h2.82c.18,2.01.88,4.02,5.4,4.02,3.07,0,4.27-1.59,4.27-2.79,0-2.61-2.36-2.75-4.94-3.39-2.75-.67-6.84-.99-6.84-5.22,0-2.82,2.5-5.11,6.74-5.11,4.48,0,6.88,2.54,7.16,5.64h-2.82c-.28-1.38-.95-3.17-4.34-3.17-2.54,0-3.91,1.02-3.91,2.43,0,2.12,2.43,2.29,4.94,2.89,3.21.78,6.84,1.3,6.84,5.75Z"/>
      <path class="cls-2" d="M119.95,25.92c-5.5,0-8.82-3.88-8.82-9.49s3.31-9.49,8.82-9.49,8.78,3.88,8.78,9.49-3.31,9.49-8.78,9.49ZM119.95,23.45c4.02,0,5.96-3.17,5.96-7.02s-1.94-7.02-5.96-7.02-5.99,3.17-5.99,7.02,1.94,7.02,5.99,7.02Z"/>
      <path class="cls-2" d="M146.44,12.87v12.55h-2.82v-11.85c0-2.33-1.09-4.16-3.91-4.16-3.17,0-5.29,2.01-5.29,4.8v11.21h-2.82V7.44h2.82v2.15h.07c.95-1.27,2.86-2.64,5.93-2.64,3.28,0,6.03,1.8,6.03,5.92Z"/>
      <path class="cls-2" d="M161.18,19.11l-2.22,6.31h-3.28L164.99.21h3.53l9.28,25.21h-3.28l-2.22-6.31h-11.11ZM171.26,16.29l-4.48-13.15h-.07l-4.48,13.15h9.03Z"/>
      <path class="cls-2" d="M183.01.21v25.21h-2.82V.21h2.82Z"/>
      <path class="cls-2" d="M191.16,4.9v2.54h3.42v2.47h-3.42v15.52h-2.82v-15.52h-2.5v-2.47h2.5v-2.82c0-3.67,1.83-4.62,4.23-4.62.63,0,1.38.07,2.01.21v2.47c-2.4-.18-3.42.18-3.42,2.22Z"/>
      <path class="cls-2" d="M204.59,25.92c-5.5,0-8.82-3.88-8.82-9.49s3.31-9.49,8.82-9.49,8.78,3.88,8.78,9.49-3.32,9.49-8.78,9.49ZM204.59,23.45c4.02,0,5.96-3.17,5.96-7.02s-1.94-7.02-5.96-7.02-6,3.17-6,7.02,1.94,7.02,6,7.02Z"/>
      <path class="cls-2" d="M231.08,12.87v12.55h-2.82v-11.85c0-2.33-1.09-4.16-3.91-4.16-3.17,0-5.29,2.01-5.29,4.8v11.21h-2.82V7.44h2.82v2.15h.07c.95-1.27,2.86-2.64,5.93-2.64,3.28,0,6.03,1.8,6.03,5.92Z"/>
      <path class="cls-2" d="M249,20.49c0,3.28-3,5.43-7.09,5.43-5.5,0-8.04-2.61-8.22-6.49h2.82c.18,2.01.88,4.02,5.4,4.02,3.07,0,4.27-1.59,4.27-2.79,0-2.61-2.36-2.75-4.94-3.39-2.75-.67-6.84-.99-6.84-5.22,0-2.82,2.5-5.11,6.74-5.11,4.48,0,6.88,2.54,7.16,5.64h-2.82c-.28-1.38-.95-3.17-4.34-3.17-2.54,0-3.91,1.02-3.91,2.43,0,2.12,2.43,2.29,4.94,2.89,3.21.78,6.84,1.3,6.84,5.75Z"/>
      <path class="cls-2" d="M259.9,25.92c-5.5,0-8.82-3.88-8.82-9.49s3.31-9.49,8.82-9.49,8.78,3.88,8.78,9.49-3.32,9.49-8.78,9.49ZM259.9,23.45c4.02,0,5.96-3.17,5.96-7.02s-1.94-7.02-5.96-7.02-6,3.17-6,7.02,1.94,7.02,6,7.02Z"/>
    </g>
  </g>
</svg>