<?xml version="1.0" encoding="UTF-8"?>
<svg id="Capa_2" xmlns="http://www.w3.org/2000/svg" version="1.1" viewBox="0 0 50 50">
  <!-- Generator: Adobe Illustrator 30.4.0, SVG Export Plug-In . SVG Version: 2.1.4 Build 226)  -->
  <defs>
    <style>
      .st0 {
        fill: #0071e3;
      }

      .st1 {
        fill: #fff;
      }
    </style>
  </defs>
  <g id="Capa_1-2">
    <rect class="st0" width="50" height="50" rx="6.9" ry="6.9"/>
  </g>
  <g>
    <path class="st1" d="M44.96,45.56l-1.62.02c-4.55-.07-6.72-2.27-8.47-4.43l-.63-1h-10.73s2.61-4.3,2.61-4.3l5.5-.04-2.75-4.49,3.71-6.05,12.38,20.28Z"/>
    <path class="st1" d="M20.77,18.09l-3.69,6.05L5.04,4.41s2.08,0,2.45.02c2.76.15,5.61,1.44,7.19,3.63l6.1,10.02Z"/>
    <path class="st1" d="M40.68,4.78l-22.11,36.44c-1.75,3.13-4.62,4.06-6.55,4.04h-2.43s-.89-.01-.89-.01L31.43,8.02c1.54-2.22,3.62-3.34,6.37-3.33l2.88.09Z"/>
  </g>
</svg>