<?xml version="1.0" encoding="UTF-8"?>
<svg id="Capa_2" xmlns="http://www.w3.org/2000/svg" version="1.1" viewBox="0 0 50 50">
  <!-- Generator: Adobe Illustrator 30.4.0, SVG Export Plug-In . SVG Version: 2.1.4 Build 226)  -->
  <defs>
    <style>
      .st0 {
        fill: #fff;
      }

      .st1 {
        fill: #1a1a1a;
      }
    </style>
  </defs>
  <g id="Capa_1-2">
    <rect class="st1" width="50" height="50" rx="6.9" ry="6.9"/>
    <g>
      <path class="st0" d="M41.2,43.2h-2.2c-4,0-6-1.8-7.6-3.7l-.6-.9h-9.6l2.6-3.8h4.4s-2.2-3.2-2.2-3.2l3.7-5.4,11.4,17Z"/>
      <path class="st0" d="M24.1,17.5l-3.8,5.5S9.1,6.9,9.1,6.8h3.6c2.6,0,5,1.2,6.5,3.3l4.9,7.4h0Z"/>
      <path class="st0" d="M41.1,6.8l-22.7,32.7c-2,2.7-5.2,3.5-6.9,3.5h-2.6S31.4,10,31.4,10c1.4-2,4-3.2,6.5-3.2h3.2,0Z"/>
    </g>
  </g>
</svg>