<?xml version="1.0" encoding="UTF-8"?>
<svg id="Capa_2" xmlns="http://www.w3.org/2000/svg" version="1.1" viewBox="0 0 547 557.06">
  <!-- Generator: Adobe Illustrator 30.4.0, SVG Export Plug-In . SVG Version: 2.1.4 Build 226)  -->
  <defs>
    <style>
      .st0 {
        fill: #0071e3;
      }

      .st1 {
        fill: #1a1a1a;
      }
    </style>
  </defs>
  <path class="st0" d="M537.26,550.25l-21.47.28c-60.1-.88-88.73-29.97-111.87-58.56l-8.31-13.15-141.79-.17,34.46-56.63,72.63-.52-36.27-59.27,49.03-79.88,163.6,267.9Z"/>
  <path class="st0" d="M217.63,187.27l-48.82,79.96L9.74,6.53c-.11-.02,27.52.06,32.37.33,36.46,2.03,74.08,19.07,94.95,48.02l80.57,132.39Z"/>
  <path class="st1" d="M480.65,11.33L188.52,492.79c-23.08,41.34-60.98,53.59-86.51,53.38l-32.07-.18h-11.7S358.51,54.18,358.51,54.18c20.36-29.39,47.79-44.09,84.12-44.02l38.02,1.18Z"/>
</svg>