<?xml version="1.0" encoding="UTF-8"?>
<svg id="Capa_2" xmlns="http://www.w3.org/2000/svg" version="1.1" viewBox="0 0 229.17 40">
  <!-- Generator: Adobe Illustrator 30.4.0, SVG Export Plug-In . SVG Version: 2.1.4 Build 226)  -->
  <defs>
    <style>
      .st0 {
        fill: #0071e3;
      }

      .st1 {
        fill: #fff;
      }
    </style>
  </defs>
  <g>
    <g>
      <path class="st1" d="M53.46,3.37l5.85,9.9h.06l5.88-9.9h2.74l-7.38,11.94v8.29h-2.55v-8.29l-7.35-11.94h2.74Z"/>
      <path class="st1" d="M76.93,19.15h2.26c-.74,2.69-2.8,4.84-6.39,4.84-4.38,0-7.04-3.08-7.04-7.61,0-4.81,2.72-7.61,6.93-7.61,4.53,0,6.73,3.08,6.73,8.2h-11.4c0,2.6,1.56,5.03,4.69,5.03,2.89,0,3.96-1.87,4.21-2.86ZM68.02,14.99h9.14c0-2.32-1.75-4.24-4.47-4.24s-4.67,1.92-4.67,4.24Z"/>
      <path class="st1" d="M81.66,5.01c0-.88.79-1.36,1.41-1.36s1.41.48,1.41,1.36-.76,1.36-1.41,1.36-1.41-.48-1.41-1.36ZM84.2,9.17v14.42h-2.26v-14.42h2.26Z"/>
      <path class="st1" d="M98.94,19.63c0,2.63-2.4,4.36-5.68,4.36-4.41,0-6.45-2.09-6.59-5.2h2.26c.14,1.61.71,3.22,4.33,3.22,2.46,0,3.42-1.27,3.42-2.23,0-2.09-1.9-2.21-3.96-2.72-2.21-.54-5.49-.79-5.49-4.19,0-2.26,2.01-4.1,5.4-4.1,3.59,0,5.52,2.04,5.74,4.53h-2.26c-.23-1.1-.76-2.55-3.48-2.55-2.04,0-3.14.82-3.14,1.95,0,1.7,1.95,1.84,3.96,2.32,2.57.62,5.49,1.05,5.49,4.61Z"/>
      <path class="st1" d="M107.68,23.99c-4.41,0-7.07-3.11-7.07-7.61s2.66-7.61,7.07-7.61,7.04,3.11,7.04,7.61-2.66,7.61-7.04,7.61ZM107.68,22.01c3.22,0,4.78-2.55,4.78-5.63s-1.56-5.63-4.78-5.63-4.81,2.55-4.81,5.63,1.56,5.63,4.81,5.63Z"/>
      <path class="st1" d="M128.91,13.52v10.07h-2.26v-9.5c0-1.87-.88-3.34-3.14-3.34-2.55,0-4.24,1.61-4.24,3.85v8.99h-2.26v-14.42h2.26v1.72h.06c.76-1.02,2.29-2.12,4.75-2.12,2.63,0,4.84,1.44,4.84,4.75Z"/>
      <path class="st1" d="M140.74,18.53l-1.78,5.06h-2.63l7.47-20.22h2.83l7.44,20.22h-2.63l-1.78-5.06h-8.91ZM148.83,16.27l-3.59-10.55h-.06l-3.59,10.55h7.24Z"/>
      <path class="st1" d="M158.24,3.37v20.22h-2.26V3.37h2.26Z"/>
      <path class="st1" d="M164.78,7.13v2.04h2.74v1.98h-2.74v12.44h-2.26v-12.44h-2.01v-1.98h2.01v-2.26c0-2.94,1.47-3.7,3.39-3.7.51,0,1.1.06,1.61.17v1.98c-1.92-.14-2.74.14-2.74,1.78Z"/>
      <path class="st1" d="M175.55,23.99c-4.41,0-7.07-3.11-7.07-7.61s2.66-7.61,7.07-7.61,7.04,3.11,7.04,7.61-2.66,7.61-7.04,7.61ZM175.55,22.01c3.22,0,4.78-2.55,4.78-5.63s-1.56-5.63-4.78-5.63-4.81,2.55-4.81,5.63,1.56,5.63,4.81,5.63Z"/>
      <path class="st1" d="M196.79,13.52v10.07h-2.26v-9.5c0-1.87-.88-3.34-3.14-3.34-2.55,0-4.24,1.61-4.24,3.85v8.99h-2.26v-14.42h2.26v1.72h.06c.76-1.02,2.29-2.12,4.75-2.12,2.63,0,4.84,1.44,4.84,4.75Z"/>
      <path class="st1" d="M211.16,19.63c0,2.63-2.4,4.36-5.68,4.36-4.41,0-6.45-2.09-6.59-5.2h2.26c.14,1.61.71,3.22,4.33,3.22,2.46,0,3.42-1.27,3.42-2.23,0-2.09-1.89-2.21-3.96-2.72-2.21-.54-5.49-.79-5.49-4.19,0-2.26,2.01-4.1,5.4-4.1,3.59,0,5.52,2.04,5.74,4.53h-2.26c-.23-1.1-.76-2.55-3.48-2.55-2.04,0-3.14.82-3.14,1.95,0,1.7,1.95,1.84,3.96,2.32,2.57.62,5.49,1.05,5.49,4.61Z"/>
      <path class="st1" d="M219.9,23.99c-4.41,0-7.07-3.11-7.07-7.61s2.66-7.61,7.07-7.61,7.04,3.11,7.04,7.61-2.66,7.61-7.04,7.61ZM219.9,22.01c3.22,0,4.78-2.55,4.78-5.63s-1.56-5.63-4.78-5.63-4.81,2.55-4.81,5.63,1.56,5.63,4.81,5.63Z"/>
    </g>
    <g>
      <path class="st0" d="M50.59,29.85h3.3c1.49,0,2.56.69,2.56,2.32s-1.07,2.33-2.56,2.33h-2.01v3.1h-1.29v-7.75ZM51.88,33.4h1.95c.87,0,1.32-.37,1.32-1.23s-.46-1.23-1.32-1.23h-1.95v2.45Z"/>
      <path class="st0" d="M62.13,29.85h3.31c1.59,0,2.62.81,2.62,2.22,0,1.08-.55,1.71-1.44,1.93v.02c1.79.34,1.14,3.37,1.55,3.5v.08h-1.36c-.36-.33.37-2.99-1.5-2.99h-1.9v2.99h-1.29v-7.75ZM63.42,33.51h1.75c.79,0,1.62-.15,1.62-1.28s-.82-1.28-1.62-1.28h-1.75v2.56Z"/>
      <path class="st0" d="M73.66,33.72c0-2.33,1.46-4.03,3.81-4.03s3.81,1.7,3.81,4.03-1.47,4.05-3.81,4.05-3.81-1.71-3.81-4.05ZM79.98,33.72c0-1.56-.74-2.93-2.52-2.93s-2.53,1.37-2.53,2.93.75,2.94,2.53,2.94,2.52-1.37,2.52-2.94Z"/>
      <path class="st0" d="M87.13,29.85h3.01c2.14,0,3.45,1.39,3.45,3.88s-1.27,3.87-3.42,3.87h-3.05v-7.75ZM88.42,36.51h1.66c1.74,0,2.22-1.29,2.22-2.78s-.49-2.79-2.22-2.79h-1.66v5.56Z"/>
      <path class="st0" d="M102.41,37.77c-2.16,0-3.06-1.12-3.06-2.81v-5.11h1.29v5.11c0,1.17.59,1.7,1.77,1.7s1.78-.53,1.78-1.7v-5.11h1.28v5.11c0,1.69-.9,2.81-3.06,2.81Z"/>
      <path class="st0" d="M114.84,30.8c-1.67,0-2.33,1.4-2.33,2.93s.66,2.94,2.33,2.94c1.44,0,2-.94,2.08-1.89h1.29c-.17,1.75-1.37,2.99-3.34,2.99-2.23,0-3.64-1.7-3.64-4.05s1.41-4.03,3.64-4.03c1.96,0,3.16,1.25,3.34,2.83h-1.29c-.14-.78-.65-1.72-2.08-1.72Z"/>
      <path class="st0" d="M125.79,30.95h-2.48v-1.1h6.25v1.1h-2.47v6.66h-1.29v-6.66Z"/>
      <path class="st0" d="M142.15,29.85h3.02c2.14,0,3.45,1.39,3.45,3.88s-1.27,3.87-3.42,3.87h-3.05v-7.75ZM143.44,36.51h1.66c1.74,0,2.22-1.29,2.22-2.78s-.49-2.79-2.22-2.79h-1.66v5.56Z"/>
      <path class="st0" d="M159.55,33.05v1.11h-3.79v2.35h4.43v1.1h-5.72v-7.75h5.61v1.1h-4.32v2.1h3.79Z"/>
      <path class="st0" d="M171.84,35.5c0,1.24-.93,2.27-2.88,2.27s-3.34-.99-3.42-2.74h1.29c.07.99.74,1.64,2.13,1.64,1.15,0,1.59-.51,1.59-1.11,0-.92-.66-1.1-2.19-1.48-1.21-.3-2.53-.77-2.53-2.24,0-1.38,1.06-2.15,2.75-2.15s2.94.89,3.05,2.48h-1.29c-.12-.9-.68-1.38-1.76-1.38-.92,0-1.48.35-1.48.92,0,.85.73,1,1.81,1.27,1.66.42,2.92.78,2.92,2.52Z"/>
      <path class="st0" d="M178.99,29.85v7.75h-1.29v-7.75h1.29Z"/>
      <path class="st0" d="M188.54,30.8c-1.66,0-2.34,1.47-2.34,2.93s.53,2.94,2.3,2.94c1.23,0,2.2-.85,2.21-2.08h-2.19v-1.04h3.5v4.07h-.89l-.28-1.06h-.02c-.52.78-1.25,1.23-2.42,1.23-2.24,0-3.5-1.7-3.5-4.05s1.41-4.03,3.64-4.03c2.02,0,3.1,1.1,3.34,2.58h-1.29c-.2-.92-.91-1.47-2.06-1.47Z"/>
      <path class="st0" d="M198.05,29.85h1.44l3.49,5.82h.02v-5.82h1.29v7.75h-1.43l-3.5-5.8h-.02v5.8h-1.29v-7.75Z"/>
      <path class="st0" d="M215.53,33.05v1.11h-3.79v2.35h4.43v1.1h-5.72v-7.75h5.61v1.1h-4.32v2.1h3.79Z"/>
      <path class="st0" d="M222.05,29.85h3.31c1.59,0,2.62.81,2.62,2.22,0,1.08-.55,1.71-1.44,1.93v.02c1.79.34,1.14,3.37,1.55,3.5v.08h-1.36c-.36-.33.37-2.99-1.5-2.99h-1.9v2.99h-1.29v-7.75ZM223.34,33.51h1.75c.79,0,1.62-.15,1.62-1.28s-.82-1.28-1.62-1.28h-1.75v2.56Z"/>
    </g>
  </g>
  <g>
    <path class="st0" d="M39.87,40.06l-1.59.02c-4.44-.07-6.55-2.21-8.26-4.32l-.61-.97h-10.47s2.54-4.19,2.54-4.19l5.36-.04-2.68-4.38,3.62-5.9,12.08,19.78Z"/>
    <path class="st0" d="M16.27,13.26l-3.6,5.9L.91-.09s2.03,0,2.39.02c2.69.15,5.47,1.41,7.01,3.55l5.95,9.78Z"/>
    <path class="st1" d="M35.69.27L14.12,35.82c-1.7,3.05-4.5,3.96-6.39,3.94h-2.37s-.86-.01-.86-.01L26.67,3.43c1.5-2.17,3.53-3.26,6.21-3.25l2.81.09Z"/>
  </g>
</svg>