<svg role="img" viewBox="0 0 256 221" xmlns="http://www.w3.org/2000/svg"><title>Notion</title><path d="M72.15 24.97c-.97.43-1.92.93-2.83 1.5a26.3 26.3 0 0 0-2.78 1.97c-.9.72-1.76 1.5-2.58 2.32a26.6 26.6 0 0 0-2.32 2.58 26.3 26.3 0 0 0-1.97 2.78c-.57.91-1.07 1.86-1.5 2.83a26.3 26.3 0 0 0-1.07 2.97 26.6 26.6 0 0 0-.6 3.05 26.4 26.4 0 0 0-.13 3.09v126.85a26.4 26.4 0 0 0 .13 3.09 26.6 26.6 0 0 0 .6 3.05 26.3 26.3 0 0 0 1.07 2.97 26.3 26.3 0 0 0 1.5 2.83 26.3 26.3 0 0 0 1.97 2.78 26.6 26.6 0 0 0 2.32 2.58 26.6 26.6 0 0 0 2.58 2.32 26.3 26.3 0 0 0 2.78 1.97 26.3 26.3 0 0 0 2.83 1.5 26.3 26.3 0 0 0 2.97 1.07 26.6 26.6 0 0 0 3.05.6 26.4 26.4 0 0 0 3.09.13h111.71a26.4 26.4 0 0 0 3.09-.13 26.6 26.6 0 0 0 3.05-.6 26.3 26.3 0 0 0 2.97-1.07 26.3 26.3 0 0 0 2.83-1.5 26.3 26.3 0 0 0 2.78-1.97 26.6 26.6 0 0 0 2.58-2.32 26.6 26.6 0 0 0 2.32-2.58 26.3 26.3 0 0 0 1.97-2.78 26.3 26.3 0 0 0 1.5-2.83 26.3 26.3 0 0 0 1.07-2.97 26.6 26.6 0 0 0 .6-3.05 26.4 26.4 0 0 0 .13-3.09V48.4a26.4 26.4 0 0 0-.13-3.09 26.6 26.6 0 0 0-.6-3.05 26.3 26.3 0 0 0-1.07-2.97 26.3 26.3 0 0 0-1.5-2.83 26.3 26.3 0 0 0-1.97-2.78 26.6 26.6 0 0 0-2.32-2.58 26.6 26.6 0 0 0-2.58-2.32 26.3 26.3 0 0 0-2.78-1.97 26.3 26.3 0 0 0-2.83-1.5 26.3 26.3 0 0 0-2.97-1.07 26.6 26.6 0 0 0-3.05-.6 26.4 26.4 0 0 0-3.09-.13H75.32a26.4 26.4 0 0 0-3.09.13 26.6 26.6 0 0 0-3.05.6 26.3 26.3 0 0 0-2.97 1.07c-.97.43-1.92.93-2.83 1.5zM0 47.4L0 0h47.4L0 47.4z" fill="#000000"/><path d="M0 174.6L0 222h47.4L0 174.6z" fill="#000000"/><path d="M72.15 24.97v173.06h111.71a26.4 26.4 0 0 0 3.09-.13 26.6 26.6 0 0 0 3.05-.6 26.3 26.3 0 0 0 2.97-1.07 26.3 26.3 0 0 0 2.83-1.5 26.3 26.3 0 0 0 2.78-1.97 26.6 26.6 0 0 0 2.58-2.32 26.6 26.6 0 0 0 2.32-2.58 26.3 26.3 0 0 0 1.97-2.78 26.3 26.3 0 0 0 1.5-2.83 26.3 26.3 0 0 0 1.07-2.97 26.6 26.6 0 0 0 .6-3.05 26.4 26.4 0 0 0 .13-3.09V48.4a26.4 26.4 0 0 0-.13-3.09 26.6 26.6 0 0 0-.6-3.05 26.3 26.3 0 0 0-1.07-2.97 26.3 26.3 0 0 0-1.5-2.83 26.3 26.3 0 0 0-1.97-2.78 26.6 26.6 0 0 0-2.32-2.58 26.6 26.6 0 0 0-2.58-2.32 26.3 26.3 0 0 0-2.78-1.97 26.3 26.3 0 3.8 1.5-2.83 26.3 26.3 0 0 0-2.97-1.07 26.6 26.6 0 0 0-3.05-.6 26.4 26.4 0 0 0-3.09-.13H72.15z" fill="#000000"/><path d="M0 47.4L47.4 0H0v47.4z" fill="#FFFFFF"/></svg>
